<mxfile host="app.diagrams.net" modified="2023-10-03T00:47:11.372Z" agent="Mozilla/5.0 (Windows NT 10.0; Win64; x64) AppleWebKit/537.36 (KHTML, like Gecko) Chrome/117.0.0.0 Safari/537.36" etag="kQJ1-lneCRslWLJGa_xJ" version="22.0.0" type="github">
  <diagram id="ULGPSGLKsjcGcxLOCEXZ" name="第 1 页">
    <mxGraphModel dx="1154" dy="571" grid="1" gridSize="10" guides="1" tooltips="1" connect="1" arrows="1" fold="1" page="1" pageScale="1" pageWidth="827" pageHeight="1169" math="0" shadow="0">
      <root>
        <mxCell id="0" />
        <mxCell id="1" parent="0" />
        <mxCell id="MZrTeRSkK0NeE49H6cSy-1" value="自我-控制-合力-心学-时间-纪律" style="rounded=1;whiteSpace=wrap;html=1;" parent="1" vertex="1">
          <mxGeometry x="240" y="340" width="190" height="20" as="geometry" />
        </mxCell>
        <mxCell id="MZrTeRSkK0NeE49H6cSy-2" value="重构-性能-组件-算法-解决问题" style="rounded=1;whiteSpace=wrap;html=1;" parent="1" vertex="1">
          <mxGeometry x="150" y="300" width="100" height="30" as="geometry" />
        </mxCell>
        <mxCell id="MZrTeRSkK0NeE49H6cSy-3" value="情绪-饮食-作息-健康-能量" style="rounded=1;whiteSpace=wrap;html=1;fillColor=#FFD966;" parent="1" vertex="1">
          <mxGeometry x="260" y="300" width="140" height="30" as="geometry" />
        </mxCell>
        <mxCell id="MZrTeRSkK0NeE49H6cSy-4" value="交易系统-控制-确定性-稳定盈利" style="rounded=1;whiteSpace=wrap;html=1;" parent="1" vertex="1">
          <mxGeometry x="414" y="300" width="90" height="30" as="geometry" />
        </mxCell>
        <mxCell id="MZrTeRSkK0NeE49H6cSy-5" value="对象 - 婚姻" style="rounded=1;whiteSpace=wrap;html=1;" parent="1" vertex="1">
          <mxGeometry x="150" y="150" width="90" height="30" as="geometry" />
        </mxCell>
        <mxCell id="MZrTeRSkK0NeE49H6cSy-6" value="兴趣-爱好-灵感" style="rounded=1;whiteSpace=wrap;html=1;" parent="1" vertex="1">
          <mxGeometry x="414" y="150" width="90" height="30" as="geometry" />
        </mxCell>
        <mxCell id="MZrTeRSkK0NeE49H6cSy-7" value="快乐-沟通汇报-机会-杠杆-格局-降维打击-财富" style="rounded=1;whiteSpace=wrap;html=1;" parent="1" vertex="1">
          <mxGeometry x="250" y="150" width="160" height="30" as="geometry" />
        </mxCell>
        <mxCell id="MZrTeRSkK0NeE49H6cSy-8" value="自由" style="rounded=1;whiteSpace=wrap;html=1;" parent="1" vertex="1">
          <mxGeometry x="260" y="80" width="110" height="20" as="geometry" />
        </mxCell>
        <mxCell id="MZrTeRSkK0NeE49H6cSy-9" value="趋势 - 自我优势 - 资源 - 复利 - 正循环" style="rounded=1;whiteSpace=wrap;html=1;" parent="1" vertex="1">
          <mxGeometry x="284" y="110" width="220" height="30" as="geometry" />
        </mxCell>
        <mxCell id="MZrTeRSkK0NeE49H6cSy-10" value="房子？- 自我价值 vs 风险" style="rounded=1;whiteSpace=wrap;html=1;" parent="1" vertex="1">
          <mxGeometry x="150" y="110" width="130" height="30" as="geometry" />
        </mxCell>
        <mxCell id="MZrTeRSkK0NeE49H6cSy-11" value="认知 - 思维 - 人性 - 开悟" style="rounded=1;whiteSpace=wrap;html=1;" parent="1" vertex="1">
          <mxGeometry x="240" y="370" width="190" height="20" as="geometry" />
        </mxCell>
        <mxCell id="La2YrRM6hSy_XuqmcYGm-7" style="edgeStyle=orthogonalEdgeStyle;rounded=0;orthogonalLoop=1;jettySize=auto;html=1;exitX=0.5;exitY=1;exitDx=0;exitDy=0;entryX=0.5;entryY=0;entryDx=0;entryDy=0;" edge="1" parent="1" source="4QB0gEzl1YV2dUJOIOZW-1" target="La2YrRM6hSy_XuqmcYGm-1">
          <mxGeometry relative="1" as="geometry">
            <Array as="points">
              <mxPoint x="225" y="230" />
              <mxPoint x="330" y="230" />
            </Array>
          </mxGeometry>
        </mxCell>
        <mxCell id="4QB0gEzl1YV2dUJOIOZW-1" value="精进 - 专家" style="rounded=1;whiteSpace=wrap;html=1;" parent="1" vertex="1">
          <mxGeometry x="150" y="190" width="150" height="30" as="geometry" />
        </mxCell>
        <mxCell id="La2YrRM6hSy_XuqmcYGm-5" style="edgeStyle=orthogonalEdgeStyle;rounded=0;orthogonalLoop=1;jettySize=auto;html=1;exitX=0.5;exitY=1;exitDx=0;exitDy=0;entryX=0.5;entryY=0;entryDx=0;entryDy=0;" edge="1" parent="1" source="4QB0gEzl1YV2dUJOIOZW-2" target="La2YrRM6hSy_XuqmcYGm-1">
          <mxGeometry relative="1" as="geometry">
            <Array as="points">
              <mxPoint x="380" y="230" />
              <mxPoint x="330" y="230" />
            </Array>
          </mxGeometry>
        </mxCell>
        <mxCell id="4QB0gEzl1YV2dUJOIOZW-2" value="模型 - 迁移 - 跨越" style="rounded=1;whiteSpace=wrap;html=1;" parent="1" vertex="1">
          <mxGeometry x="310" y="190" width="140" height="30" as="geometry" />
        </mxCell>
        <mxCell id="4QB0gEzl1YV2dUJOIOZW-3" value="复盘&lt;br&gt;|&lt;br&gt;脚本&lt;br&gt;|&lt;br&gt;自动化" style="rounded=1;whiteSpace=wrap;html=1;" parent="1" vertex="1">
          <mxGeometry x="100" y="220" width="40" height="140" as="geometry" />
        </mxCell>
        <mxCell id="-NOIWLy3KLVSybaApwvm-1" value="规划" style="rounded=1;whiteSpace=wrap;html=1;" parent="1" vertex="1">
          <mxGeometry x="464" y="190" width="40" height="30" as="geometry" />
        </mxCell>
        <mxCell id="La2YrRM6hSy_XuqmcYGm-2" style="edgeStyle=orthogonalEdgeStyle;rounded=0;orthogonalLoop=1;jettySize=auto;html=1;exitX=1;exitY=0.5;exitDx=0;exitDy=0;entryX=0.5;entryY=0;entryDx=0;entryDy=0;" edge="1" parent="1" source="La2YrRM6hSy_XuqmcYGm-1" target="MZrTeRSkK0NeE49H6cSy-4">
          <mxGeometry relative="1" as="geometry" />
        </mxCell>
        <mxCell id="La2YrRM6hSy_XuqmcYGm-3" style="edgeStyle=orthogonalEdgeStyle;rounded=0;orthogonalLoop=1;jettySize=auto;html=1;exitX=0;exitY=0.5;exitDx=0;exitDy=0;entryX=0.5;entryY=0;entryDx=0;entryDy=0;" edge="1" parent="1" source="La2YrRM6hSy_XuqmcYGm-1" target="MZrTeRSkK0NeE49H6cSy-2">
          <mxGeometry relative="1" as="geometry" />
        </mxCell>
        <mxCell id="La2YrRM6hSy_XuqmcYGm-6" style="edgeStyle=orthogonalEdgeStyle;rounded=0;orthogonalLoop=1;jettySize=auto;html=1;exitX=0;exitY=0.5;exitDx=0;exitDy=0;entryX=1;entryY=0.25;entryDx=0;entryDy=0;" edge="1" parent="1" source="La2YrRM6hSy_XuqmcYGm-1" target="4QB0gEzl1YV2dUJOIOZW-3">
          <mxGeometry relative="1" as="geometry" />
        </mxCell>
        <mxCell id="La2YrRM6hSy_XuqmcYGm-1" value="python" style="rounded=1;whiteSpace=wrap;html=1;" vertex="1" parent="1">
          <mxGeometry x="255" y="240" width="150" height="30" as="geometry" />
        </mxCell>
      </root>
    </mxGraphModel>
  </diagram>
</mxfile>
